<mxfile host="65bd71144e">
    <diagram id="aJp-WuyV4BwuRdhtaDfh" name="Page-1">
        <mxGraphModel dx="898" dy="680" grid="1" gridSize="10" guides="1" tooltips="1" connect="1" arrows="1" fold="1" page="1" pageScale="1" pageWidth="850" pageHeight="1100" math="0" shadow="0">
            <root>
                <mxCell id="0"/>
                <mxCell id="1" parent="0"/>
                <mxCell id="_DON4Gq4Nw9sCNvcvKus-1" value="" style="rounded=0;whiteSpace=wrap;html=1;" parent="1" vertex="1">
                    <mxGeometry x="105" y="130" width="635" height="440" as="geometry"/>
                </mxCell>
                <mxCell id="_DON4Gq4Nw9sCNvcvKus-2" value="" style="rounded=0;whiteSpace=wrap;html=1;" parent="1" vertex="1">
                    <mxGeometry x="105" y="70" width="635" height="60" as="geometry"/>
                </mxCell>
                <mxCell id="_DON4Gq4Nw9sCNvcvKus-3" value="" style="rounded=0;whiteSpace=wrap;html=1;" parent="1" vertex="1">
                    <mxGeometry x="105" y="570" width="635" height="60" as="geometry"/>
                </mxCell>
                <mxCell id="_DON4Gq4Nw9sCNvcvKus-4" value="" style="rounded=0;whiteSpace=wrap;html=1;" parent="1" vertex="1">
                    <mxGeometry x="140" y="80" width="150" height="40" as="geometry"/>
                </mxCell>
                <mxCell id="_DON4Gq4Nw9sCNvcvKus-5" value="" style="ellipse;whiteSpace=wrap;html=1;aspect=fixed;" parent="1" vertex="1">
                    <mxGeometry x="150" y="85" width="30" height="30" as="geometry"/>
                </mxCell>
                <mxCell id="_DON4Gq4Nw9sCNvcvKus-6" value="" style="rounded=0;whiteSpace=wrap;html=1;" parent="1" vertex="1">
                    <mxGeometry x="390" y="80" width="340" height="40" as="geometry"/>
                </mxCell>
                <mxCell id="_DON4Gq4Nw9sCNvcvKus-7" value="" style="rounded=0;whiteSpace=wrap;html=1;" parent="1" vertex="1">
                    <mxGeometry x="240" y="140" width="490" height="200" as="geometry"/>
                </mxCell>
                <mxCell id="QZgNKDyuAam41x_k0uwj-1" value="" style="rounded=0;whiteSpace=wrap;html=1;" parent="1" vertex="1">
                    <mxGeometry x="240" y="350" width="490" height="120" as="geometry"/>
                </mxCell>
                <mxCell id="QZgNKDyuAam41x_k0uwj-2" value="" style="rounded=0;whiteSpace=wrap;html=1;" parent="1" vertex="1">
                    <mxGeometry x="240" y="480" width="490" height="70" as="geometry"/>
                </mxCell>
                <mxCell id="QZgNKDyuAam41x_k0uwj-17" value="" style="rounded=0;whiteSpace=wrap;html=1;" parent="1" vertex="1">
                    <mxGeometry x="400" y="85" width="90" height="30" as="geometry"/>
                </mxCell>
                <mxCell id="QZgNKDyuAam41x_k0uwj-18" value="" style="rounded=0;whiteSpace=wrap;html=1;" parent="1" vertex="1">
                    <mxGeometry x="510" y="85" width="90" height="30" as="geometry"/>
                </mxCell>
                <mxCell id="QZgNKDyuAam41x_k0uwj-19" value="" style="rounded=0;whiteSpace=wrap;html=1;" parent="1" vertex="1">
                    <mxGeometry x="620" y="85" width="90" height="30" as="geometry"/>
                </mxCell>
                <mxCell id="QZgNKDyuAam41x_k0uwj-20" value="" style="rounded=0;whiteSpace=wrap;html=1;" parent="1" vertex="1">
                    <mxGeometry x="260" y="490" width="200" height="50" as="geometry"/>
                </mxCell>
                <mxCell id="QZgNKDyuAam41x_k0uwj-21" value="" style="rounded=0;whiteSpace=wrap;html=1;" parent="1" vertex="1">
                    <mxGeometry x="480" y="490" width="190" height="50" as="geometry"/>
                </mxCell>
                <mxCell id="QZgNKDyuAam41x_k0uwj-22" value="" style="rounded=0;whiteSpace=wrap;html=1;" parent="1" vertex="1">
                    <mxGeometry x="340" y="365" width="180" height="90" as="geometry"/>
                </mxCell>
                <mxCell id="QZgNKDyuAam41x_k0uwj-24" value="" style="rounded=0;whiteSpace=wrap;html=1;" parent="1" vertex="1">
                    <mxGeometry x="187.5" y="87.5" width="95" height="25" as="geometry"/>
                </mxCell>
                <mxCell id="4" value="" style="rounded=0;whiteSpace=wrap;html=1;" vertex="1" parent="1">
                    <mxGeometry x="110" y="140" width="120" height="200" as="geometry"/>
                </mxCell>
                <mxCell id="5" value="" style="rounded=0;whiteSpace=wrap;html=1;" vertex="1" parent="1">
                    <mxGeometry x="110" y="350" width="120" height="120" as="geometry"/>
                </mxCell>
                <mxCell id="6" value="" style="rounded=0;whiteSpace=wrap;html=1;" vertex="1" parent="1">
                    <mxGeometry x="110" y="480" width="120" height="70" as="geometry"/>
                </mxCell>
                <mxCell id="7" value="" style="rounded=0;whiteSpace=wrap;html=1;" vertex="1" parent="1">
                    <mxGeometry x="250" y="150" width="460" height="70" as="geometry"/>
                </mxCell>
                <mxCell id="8" value="" style="rounded=0;whiteSpace=wrap;html=1;" vertex="1" parent="1">
                    <mxGeometry x="250" y="230" width="190" height="80" as="geometry"/>
                </mxCell>
                <mxCell id="9" value="" style="rounded=0;whiteSpace=wrap;html=1;" vertex="1" parent="1">
                    <mxGeometry x="520" y="230" width="190" height="80" as="geometry"/>
                </mxCell>
            </root>
        </mxGraphModel>
    </diagram>
</mxfile>